<mxfile host="Electron" modified="2024-04-22T06:34:59.861Z" agent="Mozilla/5.0 (X11; Linux x86_64) AppleWebKit/537.36 (KHTML, like Gecko) draw.io/24.2.5 Chrome/120.0.6099.109 Electron/28.1.0 Safari/537.36" etag="kBEiODj0jdN2Igepouw7" version="24.2.5" type="device">
  <diagram id="C5RBs43oDa-KdzZeNtuy" name="Page-1">
    <mxGraphModel dx="1103" dy="642" grid="1" gridSize="10" guides="1" tooltips="1" connect="1" arrows="1" fold="1" page="1" pageScale="1" pageWidth="827" pageHeight="1169" math="0" shadow="0">
      <root>
        <mxCell id="WIyWlLk6GJQsqaUBKTNV-0" />
        <mxCell id="WIyWlLk6GJQsqaUBKTNV-1" parent="WIyWlLk6GJQsqaUBKTNV-0" />
        <mxCell id="fDBzksaXZJYRck9aZXB0-4" value="Args" style="shape=folder;fontStyle=1;tabWidth=110;tabHeight=30;tabPosition=left;html=1;boundedLbl=1;labelInHeader=1;container=1;collapsible=0;whiteSpace=wrap;" vertex="1" parent="WIyWlLk6GJQsqaUBKTNV-1">
          <mxGeometry x="370" y="556.5" width="150" height="100" as="geometry" />
        </mxCell>
        <mxCell id="fDBzksaXZJYRck9aZXB0-5" value="External Library" style="html=1;strokeColor=none;resizeWidth=1;resizeHeight=1;fillColor=none;part=1;connectable=0;allowArrows=0;deletable=0;whiteSpace=wrap;" vertex="1" parent="fDBzksaXZJYRck9aZXB0-4">
          <mxGeometry width="150" height="70" relative="1" as="geometry">
            <mxPoint y="30" as="offset" />
          </mxGeometry>
        </mxCell>
        <mxCell id="fDBzksaXZJYRck9aZXB0-53" style="edgeStyle=orthogonalEdgeStyle;rounded=0;orthogonalLoop=1;jettySize=auto;html=1;endArrow=none;endFill=0;" edge="1" parent="WIyWlLk6GJQsqaUBKTNV-1" source="fDBzksaXZJYRck9aZXB0-12" target="fDBzksaXZJYRck9aZXB0-9">
          <mxGeometry relative="1" as="geometry">
            <Array as="points">
              <mxPoint x="90" y="110" />
            </Array>
          </mxGeometry>
        </mxCell>
        <mxCell id="fDBzksaXZJYRck9aZXB0-12" value="Ports are integers because they need to have special -1 value to symbolize whether they are initialized or not" style="shape=note2;boundedLbl=1;whiteSpace=wrap;html=1;size=25;verticalAlign=top;align=center;" vertex="1" parent="WIyWlLk6GJQsqaUBKTNV-1">
          <mxGeometry x="30" y="525.5" width="120" height="131" as="geometry" />
        </mxCell>
        <mxCell id="fDBzksaXZJYRck9aZXB0-22" value="Sniffer" style="swimlane;fontStyle=1;align=center;verticalAlign=top;childLayout=stackLayout;horizontal=1;startSize=26;horizontalStack=0;resizeParent=1;resizeParentMax=0;resizeLast=0;collapsible=1;marginBottom=0;whiteSpace=wrap;html=1;" vertex="1" parent="WIyWlLk6GJQsqaUBKTNV-1">
          <mxGeometry x="500" y="78.5" width="260" height="322" as="geometry" />
        </mxCell>
        <mxCell id="fDBzksaXZJYRck9aZXB0-38" value="- Config&amp;amp; config" style="text;strokeColor=none;fillColor=none;align=left;verticalAlign=top;spacingLeft=4;spacingRight=4;overflow=hidden;rotatable=0;points=[[0,0.5],[1,0.5]];portConstraint=eastwest;whiteSpace=wrap;html=1;" vertex="1" parent="fDBzksaXZJYRck9aZXB0-22">
          <mxGeometry y="26" width="260" height="26" as="geometry" />
        </mxCell>
        <mxCell id="fDBzksaXZJYRck9aZXB0-39" value="- std::string filter" style="text;strokeColor=none;fillColor=none;align=left;verticalAlign=top;spacingLeft=4;spacingRight=4;overflow=hidden;rotatable=0;points=[[0,0.5],[1,0.5]];portConstraint=eastwest;whiteSpace=wrap;html=1;" vertex="1" parent="fDBzksaXZJYRck9aZXB0-22">
          <mxGeometry y="52" width="260" height="26" as="geometry" />
        </mxCell>
        <mxCell id="fDBzksaXZJYRck9aZXB0-44" value="- int link_layer_type_len" style="text;strokeColor=none;fillColor=none;align=left;verticalAlign=top;spacingLeft=4;spacingRight=4;overflow=hidden;rotatable=0;points=[[0,0.5],[1,0.5]];portConstraint=eastwest;whiteSpace=wrap;html=1;" vertex="1" parent="fDBzksaXZJYRck9aZXB0-22">
          <mxGeometry y="78" width="260" height="26" as="geometry" />
        </mxCell>
        <mxCell id="fDBzksaXZJYRck9aZXB0-40" value="- pcap_t* pd" style="text;strokeColor=none;fillColor=none;align=left;verticalAlign=top;spacingLeft=4;spacingRight=4;overflow=hidden;rotatable=0;points=[[0,0.5],[1,0.5]];portConstraint=eastwest;whiteSpace=wrap;html=1;" vertex="1" parent="fDBzksaXZJYRck9aZXB0-22">
          <mxGeometry y="104" width="260" height="26" as="geometry" />
        </mxCell>
        <mxCell id="fDBzksaXZJYRck9aZXB0-23" value="- bool initialized" style="text;strokeColor=none;fillColor=none;align=left;verticalAlign=top;spacingLeft=4;spacingRight=4;overflow=hidden;rotatable=0;points=[[0,0.5],[1,0.5]];portConstraint=eastwest;whiteSpace=wrap;html=1;" vertex="1" parent="fDBzksaXZJYRck9aZXB0-22">
          <mxGeometry y="130" width="260" height="26" as="geometry" />
        </mxCell>
        <mxCell id="fDBzksaXZJYRck9aZXB0-24" value="" style="line;strokeWidth=1;fillColor=none;align=left;verticalAlign=middle;spacingTop=-1;spacingLeft=3;spacingRight=3;rotatable=0;labelPosition=right;points=[];portConstraint=eastwest;strokeColor=inherit;" vertex="1" parent="fDBzksaXZJYRck9aZXB0-22">
          <mxGeometry y="156" width="260" height="8" as="geometry" />
        </mxCell>
        <mxCell id="fDBzksaXZJYRck9aZXB0-25" value="- create_pcap_handle(const char* interface, const char* filter)" style="text;strokeColor=none;fillColor=none;align=left;verticalAlign=top;spacingLeft=4;spacingRight=4;overflow=hidden;rotatable=0;points=[[0,0.5],[1,0.5]];portConstraint=eastwest;whiteSpace=wrap;html=1;" vertex="1" parent="fDBzksaXZJYRck9aZXB0-22">
          <mxGeometry y="164" width="260" height="36" as="geometry" />
        </mxCell>
        <mxCell id="fDBzksaXZJYRck9aZXB0-45" value="- get_link_layer_type_size(pcat_t* handle)" style="text;strokeColor=none;fillColor=none;align=left;verticalAlign=top;spacingLeft=4;spacingRight=4;overflow=hidden;rotatable=0;points=[[0,0.5],[1,0.5]];portConstraint=eastwest;whiteSpace=wrap;html=1;" vertex="1" parent="fDBzksaXZJYRck9aZXB0-22">
          <mxGeometry y="200" width="260" height="30" as="geometry" />
        </mxCell>
        <mxCell id="fDBzksaXZJYRck9aZXB0-46" value="- packet_handler(u_char* user, pcap_pkthdr* packethdr, u_char* packet)" style="text;strokeColor=none;fillColor=none;align=left;verticalAlign=top;spacingLeft=4;spacingRight=4;overflow=hidden;rotatable=0;points=[[0,0.5],[1,0.5]];portConstraint=eastwest;whiteSpace=wrap;html=1;" vertex="1" parent="fDBzksaXZJYRck9aZXB0-22">
          <mxGeometry y="230" width="260" height="40" as="geometry" />
        </mxCell>
        <mxCell id="fDBzksaXZJYRck9aZXB0-47" value="+ void sniff()" style="text;strokeColor=none;fillColor=none;align=left;verticalAlign=top;spacingLeft=4;spacingRight=4;overflow=hidden;rotatable=0;points=[[0,0.5],[1,0.5]];portConstraint=eastwest;whiteSpace=wrap;html=1;" vertex="1" parent="fDBzksaXZJYRck9aZXB0-22">
          <mxGeometry y="270" width="260" height="26" as="geometry" />
        </mxCell>
        <mxCell id="fDBzksaXZJYRck9aZXB0-48" value="+ void stop_sniffing(int sig_num)" style="text;strokeColor=none;fillColor=none;align=left;verticalAlign=top;spacingLeft=4;spacingRight=4;overflow=hidden;rotatable=0;points=[[0,0.5],[1,0.5]];portConstraint=eastwest;whiteSpace=wrap;html=1;" vertex="1" parent="fDBzksaXZJYRck9aZXB0-22">
          <mxGeometry y="296" width="260" height="26" as="geometry" />
        </mxCell>
        <mxCell id="fDBzksaXZJYRck9aZXB0-31" value="Config&lt;div&gt;&lt;span style=&quot;font-weight: normal;&quot;&gt;constraints { number of instances = 1 }&lt;/span&gt;&lt;/div&gt;" style="swimlane;fontStyle=1;align=center;verticalAlign=top;childLayout=stackLayout;horizontal=1;startSize=50;horizontalStack=0;resizeParent=1;resizeParentMax=0;resizeLast=0;collapsible=1;marginBottom=0;whiteSpace=wrap;html=1;" vertex="1" parent="WIyWlLk6GJQsqaUBKTNV-1">
          <mxGeometry x="120" y="20.5" width="270" height="474" as="geometry" />
        </mxCell>
        <mxCell id="fDBzksaXZJYRck9aZXB0-1" value="&amp;lt;&amp;lt;get/set&amp;gt;&amp;gt; PROTOCOL protocol" style="text;strokeColor=none;fillColor=none;align=left;verticalAlign=top;spacingLeft=4;spacingRight=4;overflow=hidden;rotatable=0;points=[[0,0.5],[1,0.5]];portConstraint=eastwest;whiteSpace=wrap;html=1;" vertex="1" parent="fDBzksaXZJYRck9aZXB0-31">
          <mxGeometry y="50" width="270" height="26" as="geometry" />
        </mxCell>
        <mxCell id="fDBzksaXZJYRck9aZXB0-9" value="&amp;lt;&amp;lt;get/set&amp;gt;&amp;gt; int port_s" style="text;strokeColor=none;fillColor=none;align=left;verticalAlign=top;spacingLeft=4;spacingRight=4;overflow=hidden;rotatable=0;points=[[0,0.5],[1,0.5]];portConstraint=eastwest;whiteSpace=wrap;html=1;" vertex="1" parent="fDBzksaXZJYRck9aZXB0-31">
          <mxGeometry y="76" width="270" height="26" as="geometry" />
        </mxCell>
        <mxCell id="fDBzksaXZJYRck9aZXB0-10" value="&amp;lt;&amp;lt;get/set&amp;gt;&amp;gt; int port_d" style="text;strokeColor=none;fillColor=none;align=left;verticalAlign=top;spacingLeft=4;spacingRight=4;overflow=hidden;rotatable=0;points=[[0,0.5],[1,0.5]];portConstraint=eastwest;whiteSpace=wrap;html=1;" vertex="1" parent="fDBzksaXZJYRck9aZXB0-31">
          <mxGeometry y="102" width="270" height="26" as="geometry" />
        </mxCell>
        <mxCell id="fDBzksaXZJYRck9aZXB0-3" value="&amp;lt;&amp;lt;get/set&amp;gt;&amp;gt; int port" style="text;strokeColor=none;fillColor=none;align=left;verticalAlign=top;spacingLeft=4;spacingRight=4;overflow=hidden;rotatable=0;points=[[0,0.5],[1,0.5]];portConstraint=eastwest;whiteSpace=wrap;html=1;" vertex="1" parent="fDBzksaXZJYRck9aZXB0-31">
          <mxGeometry y="128" width="270" height="26" as="geometry" />
        </mxCell>
        <mxCell id="fDBzksaXZJYRck9aZXB0-2" value="&amp;lt;&amp;lt;get/set&amp;gt;&amp;gt; std::string intfc" style="text;strokeColor=none;fillColor=none;align=left;verticalAlign=top;spacingLeft=4;spacingRight=4;overflow=hidden;rotatable=0;points=[[0,0.5],[1,0.5]];portConstraint=eastwest;whiteSpace=wrap;html=1;" vertex="1" parent="fDBzksaXZJYRck9aZXB0-31">
          <mxGeometry y="154" width="270" height="26" as="geometry" />
        </mxCell>
        <mxCell id="fDBzksaXZJYRck9aZXB0-11" value="&amp;lt;&amp;lt;get/set&amp;gt;&amp;gt; int num" style="text;strokeColor=none;fillColor=none;align=left;verticalAlign=top;spacingLeft=4;spacingRight=4;overflow=hidden;rotatable=0;points=[[0,0.5],[1,0.5]];portConstraint=eastwest;whiteSpace=wrap;html=1;" vertex="1" parent="fDBzksaXZJYRck9aZXB0-31">
          <mxGeometry y="180" width="270" height="26" as="geometry" />
        </mxCell>
        <mxCell id="fDBzksaXZJYRck9aZXB0-13" value="- char flags" style="text;strokeColor=none;fillColor=none;align=left;verticalAlign=top;spacingLeft=4;spacingRight=4;overflow=hidden;rotatable=0;points=[[0,0.5],[1,0.5]];portConstraint=eastwest;whiteSpace=wrap;html=1;" vertex="1" parent="fDBzksaXZJYRck9aZXB0-31">
          <mxGeometry y="206" width="270" height="26" as="geometry" />
        </mxCell>
        <mxCell id="fDBzksaXZJYRck9aZXB0-33" value="" style="line;strokeWidth=1;fillColor=none;align=left;verticalAlign=middle;spacingTop=-1;spacingLeft=3;spacingRight=3;rotatable=0;labelPosition=right;points=[];portConstraint=eastwest;strokeColor=inherit;" vertex="1" parent="fDBzksaXZJYRck9aZXB0-31">
          <mxGeometry y="232" width="270" height="8" as="geometry" />
        </mxCell>
        <mxCell id="fDBzksaXZJYRck9aZXB0-14" value="- void set_flags()" style="text;strokeColor=none;fillColor=none;align=left;verticalAlign=top;spacingLeft=4;spacingRight=4;overflow=hidden;rotatable=0;points=[[0,0.5],[1,0.5]];portConstraint=eastwest;whiteSpace=wrap;html=1;" vertex="1" parent="fDBzksaXZJYRck9aZXB0-31">
          <mxGeometry y="240" width="270" height="26" as="geometry" />
        </mxCell>
        <mxCell id="fDBzksaXZJYRck9aZXB0-15" value="+ bool arp()" style="text;strokeColor=none;fillColor=none;align=left;verticalAlign=top;spacingLeft=4;spacingRight=4;overflow=hidden;rotatable=0;points=[[0,0.5],[1,0.5]];portConstraint=eastwest;whiteSpace=wrap;html=1;" vertex="1" parent="fDBzksaXZJYRck9aZXB0-31">
          <mxGeometry y="266" width="270" height="26" as="geometry" />
        </mxCell>
        <mxCell id="fDBzksaXZJYRck9aZXB0-16" value="+ bool icmp4()" style="text;strokeColor=none;fillColor=none;align=left;verticalAlign=top;spacingLeft=4;spacingRight=4;overflow=hidden;rotatable=0;points=[[0,0.5],[1,0.5]];portConstraint=eastwest;whiteSpace=wrap;html=1;" vertex="1" parent="fDBzksaXZJYRck9aZXB0-31">
          <mxGeometry y="292" width="270" height="26" as="geometry" />
        </mxCell>
        <mxCell id="fDBzksaXZJYRck9aZXB0-17" value="+ bool icmp6()" style="text;strokeColor=none;fillColor=none;align=left;verticalAlign=top;spacingLeft=4;spacingRight=4;overflow=hidden;rotatable=0;points=[[0,0.5],[1,0.5]];portConstraint=eastwest;whiteSpace=wrap;html=1;" vertex="1" parent="fDBzksaXZJYRck9aZXB0-31">
          <mxGeometry y="318" width="270" height="26" as="geometry" />
        </mxCell>
        <mxCell id="fDBzksaXZJYRck9aZXB0-18" value="+ bool igmp()" style="text;strokeColor=none;fillColor=none;align=left;verticalAlign=top;spacingLeft=4;spacingRight=4;overflow=hidden;rotatable=0;points=[[0,0.5],[1,0.5]];portConstraint=eastwest;whiteSpace=wrap;html=1;" vertex="1" parent="fDBzksaXZJYRck9aZXB0-31">
          <mxGeometry y="344" width="270" height="26" as="geometry" />
        </mxCell>
        <mxCell id="fDBzksaXZJYRck9aZXB0-19" value="+ bool ndp()" style="text;strokeColor=none;fillColor=none;align=left;verticalAlign=top;spacingLeft=4;spacingRight=4;overflow=hidden;rotatable=0;points=[[0,0.5],[1,0.5]];portConstraint=eastwest;whiteSpace=wrap;html=1;" vertex="1" parent="fDBzksaXZJYRck9aZXB0-31">
          <mxGeometry y="370" width="270" height="26" as="geometry" />
        </mxCell>
        <mxCell id="fDBzksaXZJYRck9aZXB0-20" value="+ bool mld()" style="text;strokeColor=none;fillColor=none;align=left;verticalAlign=top;spacingLeft=4;spacingRight=4;overflow=hidden;rotatable=0;points=[[0,0.5],[1,0.5]];portConstraint=eastwest;whiteSpace=wrap;html=1;" vertex="1" parent="fDBzksaXZJYRck9aZXB0-31">
          <mxGeometry y="396" width="270" height="26" as="geometry" />
        </mxCell>
        <mxCell id="fDBzksaXZJYRck9aZXB0-21" value="+ void print_flags()" style="text;strokeColor=none;fillColor=none;align=left;verticalAlign=top;spacingLeft=4;spacingRight=4;overflow=hidden;rotatable=0;points=[[0,0.5],[1,0.5]];portConstraint=eastwest;whiteSpace=wrap;html=1;" vertex="1" parent="fDBzksaXZJYRck9aZXB0-31">
          <mxGeometry y="422" width="270" height="26" as="geometry" />
        </mxCell>
        <mxCell id="fDBzksaXZJYRck9aZXB0-34" value="+ method(type): type" style="text;strokeColor=none;fillColor=none;align=left;verticalAlign=top;spacingLeft=4;spacingRight=4;overflow=hidden;rotatable=0;points=[[0,0.5],[1,0.5]];portConstraint=eastwest;whiteSpace=wrap;html=1;" vertex="1" parent="fDBzksaXZJYRck9aZXB0-31">
          <mxGeometry y="448" width="270" height="26" as="geometry" />
        </mxCell>
        <mxCell id="fDBzksaXZJYRck9aZXB0-37" style="edgeStyle=orthogonalEdgeStyle;rounded=0;orthogonalLoop=1;jettySize=auto;html=1;endSize=12;endArrow=open;endFill=0;" edge="1" parent="WIyWlLk6GJQsqaUBKTNV-1" source="fDBzksaXZJYRck9aZXB0-31" target="fDBzksaXZJYRck9aZXB0-4">
          <mxGeometry relative="1" as="geometry" />
        </mxCell>
        <mxCell id="fDBzksaXZJYRck9aZXB0-52" value="uses" style="edgeLabel;html=1;align=center;verticalAlign=middle;resizable=0;points=[];" vertex="1" connectable="0" parent="fDBzksaXZJYRck9aZXB0-37">
          <mxGeometry x="-0.0412" y="1" relative="1" as="geometry">
            <mxPoint as="offset" />
          </mxGeometry>
        </mxCell>
        <mxCell id="fDBzksaXZJYRck9aZXB0-51" style="edgeStyle=orthogonalEdgeStyle;rounded=0;orthogonalLoop=1;jettySize=auto;html=1;endArrow=none;endFill=0;" edge="1" parent="WIyWlLk6GJQsqaUBKTNV-1" source="fDBzksaXZJYRck9aZXB0-42" target="fDBzksaXZJYRck9aZXB0-23">
          <mxGeometry relative="1" as="geometry">
            <Array as="points">
              <mxPoint x="780" y="222" />
            </Array>
          </mxGeometry>
        </mxCell>
        <mxCell id="fDBzksaXZJYRck9aZXB0-42" value="Initialized attribute is for the pcap file descriptor - it initialized whether it was allocated and if it wasn&#39;t, it wont be freed in the destructor" style="shape=note;size=20;whiteSpace=wrap;html=1;" vertex="1" parent="WIyWlLk6GJQsqaUBKTNV-1">
          <mxGeometry x="670" y="510.5" width="140" height="146" as="geometry" />
        </mxCell>
        <mxCell id="fDBzksaXZJYRck9aZXB0-50" style="edgeStyle=orthogonalEdgeStyle;rounded=0;orthogonalLoop=1;jettySize=auto;html=1;endArrow=diamondThin;endFill=0;endSize=12;startSize=12;" edge="1" parent="WIyWlLk6GJQsqaUBKTNV-1" source="fDBzksaXZJYRck9aZXB0-13" target="fDBzksaXZJYRck9aZXB0-22">
          <mxGeometry relative="1" as="geometry" />
        </mxCell>
        <mxCell id="fDBzksaXZJYRck9aZXB0-54" value="1" style="edgeLabel;html=1;align=center;verticalAlign=middle;resizable=0;points=[];" vertex="1" connectable="0" parent="fDBzksaXZJYRck9aZXB0-50">
          <mxGeometry x="-0.6674" y="-1" relative="1" as="geometry">
            <mxPoint x="-9" y="-14" as="offset" />
          </mxGeometry>
        </mxCell>
        <mxCell id="fDBzksaXZJYRck9aZXB0-55" value="*" style="edgeLabel;html=1;align=center;verticalAlign=middle;resizable=0;points=[];" vertex="1" connectable="0" parent="fDBzksaXZJYRck9aZXB0-50">
          <mxGeometry x="0.7339" y="1" relative="1" as="geometry">
            <mxPoint y="-8" as="offset" />
          </mxGeometry>
        </mxCell>
      </root>
    </mxGraphModel>
  </diagram>
</mxfile>
